<?xml version="1.0" standalone="no"?><!DOCTYPE svg PUBLIC "-//W3C//DTD SVG 1.1//EN" "http://www.w3.org/Graphics/SVG/1.1/DTD/svg11.dtd"><svg t="1660816417501" class="icon" viewBox="0 0 1024 1024" version="1.1" xmlns="http://www.w3.org/2000/svg" p-id="5756" xmlns:xlink="http://www.w3.org/1999/xlink" width="200" height="200"><defs><style type="text/css">@font-face { font-family: feedback-iconfont; src: url("//at.alicdn.com/t/font_1031158_u69w8yhxdu.woff2?t=1630033759944") format("woff2"), url("//at.alicdn.com/t/font_1031158_u69w8yhxdu.woff?t=1630033759944") format("woff"), url("//at.alicdn.com/t/font_1031158_u69w8yhxdu.ttf?t=1630033759944") format("truetype"); }
</style></defs><path d="M514.22171429 958.20901587C268.15593651 958.20901587 67.95479365 758.00584127 67.95479365 512c0-246.06679365 200.20215873-446.26895238 446.26895238-446.26895238S960.48761905 265.93320635 960.48761905 512 760.28647619 958.20901587 514.22069841 958.20901587z m0-833.23936508c-213.39834921 0-387.02933333 173.62996825-387.02933334 387.03034921s173.63098413 387.03034921 387.09028572 387.03034921S901.36990476 725.40038095 901.36990476 512 727.68 124.96965079 514.22171429 124.96965079z" p-id="5757"></path><path d="M514.22171429 767.1791746c-68.17320635 0-132.20469841-26.57015873-180.43631746-74.74285714a29.60660317 29.60660317 0 0 1 0-41.83974603 29.60660317 29.60660317 0 0 1 41.83974603 0c76.39974603 76.4007619 200.73447619 76.4007619 277.13523809 0a29.60660317 29.60660317 0 0 1 41.83974603 0 29.60660317 29.60660317 0 0 1 0 41.83974603c-48.1127619 48.17269841-112.2031746 74.74285714-180.37841269 74.74285714z" p-id="5758"></path></svg>